# xmcd
#
# Track frame offsets:
#	150
#	13986
#	25388
#	41901
#	60572
#	75350
#	88230
#	99272
#	116964
#	132032
#	147923
#	163371
#	178391
#	190691
#	204843
#	221441
#	236450
#	253672
#	268744
#	280154
#	293934
#	309112
#
# Disc length: 4334 seconds
#
# Revision: 1
# Processed by: cddbd v1.4PL0 Copyright (c) Steve Scherf et al.
# Submitted via: MusicManager 7.0.0.0 
#
DISCID=4310ec16
DTITLE=Various Artist - Contemporary Country - The Late 80's
DYEAR=1992
DGENRE=
TTITLE0=Clint Black - Better Man
TTITLE1=Highway 101 - Cry, Cry, Cry
TTITLE2=Randy Travis - I Told You So
TTITLE3=K.T. Olsin - I'll Always Come Back
TTITLE4=Keith Whitley - I Wonder Do You Think Of Me
TTITLE5=Hank Williams Jr and Sr - There's A Tear In My Beer
TTITLE6=Vern Gosdin - Set 'em Up Joe
TTITLE7=Restless Heart - Bluest Eyes In Texas
TTITLE8=Rosanne Cash - If You Change Your Mind
TTITLE9=Reba McEntire - What Am I Gonna Do About You
TTITLE10=Merle Haggard - Twinkle, Twinkle Lucky Star
TTITLE11=The Nitty Gritty Dirt Band - Fishin' In The Dark
TTITLE12=Tanya Tucker - Strong Enough To Bend
TTITLE13=George Strait - Ocean Front Property
TTITLE14=The Judds - Cry Myself To Sleep
TTITLE15=Ricky Van Shelton - Somebody Lied
TTITLE16=Eddy Raven - Joe Knows How To Live
TTITLE17=Eddie Rabbitt - The Wanderer
TTITLE18=Patty Loveless - Timber, I'm Falling In Love
TTITLE19=Alabama - High Cotton
TTITLE20=Kathy Mattea - Eighteen Wheels And A Dozen Roses
TTITLE21=Earl Thomas Conley and Emmylou Harris - We Believe In Happy Endings
EXTD=added artists names
EXTT0=
EXTT1=
EXTT2=
EXTT3=
EXTT4=
EXTT5=
EXTT6=
EXTT7=
EXTT8=
EXTT9=
EXTT10=
EXTT11=
EXTT12=
EXTT13=
EXTT14=
EXTT15=
EXTT16=
EXTT17=
EXTT18=
EXTT19=
EXTT20=
EXTT21=
PLAYORDER=
